<svg width="32" height="26" viewBox="0 0 32 26" fill="none" xmlns="http://www.w3.org/2000/svg">
<path fill-rule="evenodd" clip-rule="evenodd" d="M16.0002 0.836914C16.4117 0.836914 16.796 1.04112 17.0243 1.38109L31.7935 23.3778C32.0898 23.8191 32.0656 24.3998 31.7335 24.8152C31.4015 25.2307 30.8374 25.3861 30.3373 25.1999L16.0002 19.8616L1.66316 25.1999C1.163 25.3861 0.598952 25.2307 0.26691 24.8152C-0.0651324 24.3998 -0.0893532 23.8191 0.206954 23.3778L14.9761 1.38109C15.2044 1.04112 15.5887 0.836914 16.0002 0.836914ZM4.37168 21.5811L15.5681 17.4122C15.8467 17.3085 16.1537 17.3085 16.4324 17.4122L27.6287 21.5811L16.0002 4.26201L4.37168 21.5811Z" fill="#43CBC3"/>
<path fill-rule="evenodd" clip-rule="evenodd" d="M15.2239 11.1923C15.6761 10.8275 16.3239 10.8275 16.7761 11.1923L31.5453 23.1072C32.0729 23.5328 32.153 24.3024 31.7244 24.8262C31.2958 25.35 30.5206 25.4296 29.9931 25.004L16 13.7153L2.00692 25.004C1.47937 25.4296 0.704226 25.35 0.275591 24.8262C-0.153044 24.3024 -0.0728569 23.5328 0.454694 23.1072L15.2239 11.1923Z" fill="#FFAE80"/>
</svg>
