<svg width="18" height="18" viewBox="0 0 18 18" fill="none" xmlns="http://www.w3.org/2000/svg">
<path d="M11.8125 11.8125H14.625V14.625H11.8125V11.8125ZM9.5625 9.5625H11.8125V11.8125H9.5625V9.5625ZM14.625 14.625H16.875V16.875H14.625V14.625ZM15.1875 9.5625H16.875V11.25H15.1875V9.5625ZM9.5625 15.1875H11.25V16.875H9.5625V15.1875ZM11.8125 3.375H14.625V6.1875H11.8125V3.375Z" fill="#43CBC3"/>
<path d="M16.875 8.4375H9.5625V1.125H16.875V8.4375ZM11.1094 6.89062H15.3281V2.67188H11.1094V6.89062ZM3.375 3.375H6.1875V6.1875H3.375V3.375Z" fill="#43CBC3"/>
<path d="M8.4375 8.4375H1.125V1.125H8.4375V8.4375ZM2.67188 6.89062H6.89062V2.67188H2.67188V6.89062ZM3.375 11.8125H6.1875V14.625H3.375V11.8125Z" fill="#43CBC3"/>
<path d="M8.4375 16.875H1.125V9.5625H8.4375V16.875ZM2.67188 15.3281H6.89062V11.1094H2.67188V15.3281Z" fill="#43CBC3"/>
</svg>
