<svg width="67" height="67" viewBox="0 0 67 67" fill="none" xmlns="http://www.w3.org/2000/svg">
<path d="M33.5 0C32.6115 0 31.7594 0.352945 31.1312 0.981192C30.5029 1.60944 30.15 2.46152 30.15 3.35V10.05C30.15 10.9385 30.5029 11.7906 31.1312 12.4188C31.7594 13.0471 32.6115 13.4 33.5 13.4C34.3885 13.4 35.2406 13.0471 35.8688 12.4188C36.4971 11.7906 36.85 10.9385 36.85 10.05V3.35C36.85 2.46152 36.4971 1.60944 35.8688 0.981192C35.2406 0.352945 34.3885 0 33.5 0ZM63.65 30.15H56.95C56.0615 30.15 55.2094 30.5029 54.5812 31.1312C53.9529 31.7594 53.6 32.6115 53.6 33.5C53.6 34.3885 53.9529 35.2406 54.5812 35.8688C55.2094 36.4971 56.0615 36.85 56.95 36.85H63.65C64.5385 36.85 65.3906 36.4971 66.0188 35.8688C66.6471 35.2406 67 34.3885 67 33.5C67 32.6115 66.6471 31.7594 66.0188 31.1312C65.3906 30.5029 64.5385 30.15 63.65 30.15ZM13.4 33.5C13.4 32.6115 13.0471 31.7594 12.4188 31.1312C11.7906 30.5029 10.9385 30.15 10.05 30.15H3.35C2.46152 30.15 1.60944 30.5029 0.981192 31.1312C0.352945 31.7594 0 32.6115 0 33.5C0 34.3885 0.352945 35.2406 0.981192 35.8688C1.60944 36.4971 2.46152 36.85 3.35 36.85H10.05C10.9385 36.85 11.7906 36.4971 12.4188 35.8688C13.0471 35.2406 13.4 34.3885 13.4 33.5ZM14.137 10.05C13.484 9.43251 12.6124 9.09972 11.714 9.12486C10.8156 9.14998 9.96399 9.53097 9.3465 10.184C8.72901 10.837 8.39622 11.7086 8.42136 12.607C8.44648 13.5054 8.82747 14.357 9.4805 14.9745L14.3045 19.631C14.6282 19.9436 15.0116 20.1877 15.4318 20.3489C15.8519 20.5101 16.3003 20.5849 16.75 20.569C17.2013 20.5673 17.6475 20.4744 18.062 20.2959C18.4765 20.1175 18.8506 19.8571 19.162 19.5305C19.7859 18.9028 20.1362 18.0538 20.1362 17.1687C20.1362 16.2837 19.7859 15.4347 19.162 14.807L14.137 10.05ZM50.25 20.569C51.1125 20.5656 51.9405 20.2296 52.5615 19.631L57.3855 14.9745C57.974 14.3596 58.3064 13.5438 58.3151 12.6927C58.3239 11.8416 58.0084 11.0191 57.4327 10.3923C56.857 9.76539 56.0643 9.38115 55.2155 9.31758C54.3668 9.25401 53.5257 9.51588 52.863 10.05L48.039 14.807C47.4151 15.4347 47.0648 16.2837 47.0648 17.1687C47.0648 18.0538 47.4151 18.9028 48.039 19.5305C48.619 20.1426 49.4086 20.5135 50.25 20.569ZM33.5 53.6C32.6115 53.6 31.7594 53.9529 31.1312 54.5812C30.5029 55.2094 30.15 56.0615 30.15 56.95V63.65C30.15 64.5385 30.5029 65.3906 31.1312 66.0188C31.7594 66.6471 32.6115 67 33.5 67C34.3885 67 35.2406 66.6471 35.8688 66.0188C36.4971 65.3906 36.85 64.5385 36.85 63.65V56.95C36.85 56.0615 36.4971 55.2094 35.8688 54.5812C35.2406 53.9529 34.3885 53.6 33.5 53.6ZM52.6955 47.369C52.0558 46.7515 51.197 46.4134 50.308 46.4291C49.4191 46.4448 48.5727 46.813 47.9552 47.4528C47.3378 48.0925 46.9997 48.9513 47.0154 49.8402C47.0311 50.7292 47.3993 51.5755 48.039 52.193L52.863 56.95C53.484 57.5486 54.312 57.8846 55.1745 57.888C55.6234 57.8906 56.0682 57.803 56.4825 57.6304C56.8969 57.4577 57.2723 57.2036 57.5865 56.883C57.9005 56.5716 58.1497 56.2011 58.3198 55.7928C58.4899 55.3846 58.5774 54.9467 58.5774 54.5045C58.5774 54.0623 58.4899 53.6244 58.3198 53.2162C58.1497 52.8079 57.9005 52.4374 57.5865 52.126L52.6955 47.369ZM14.3045 47.369L9.4805 52.0255C9.16651 52.3369 8.91729 52.7074 8.74721 53.1157C8.57714 53.5239 8.48958 53.9618 8.48958 54.404C8.48958 54.8462 8.57714 55.2841 8.74721 55.6923C8.91729 56.1006 9.16651 56.4711 9.4805 56.7825C9.7947 57.1031 10.1701 57.3572 10.5845 57.5299C10.9988 57.7025 11.4436 57.7901 11.8925 57.7875C12.7183 57.7945 13.5176 57.4963 14.137 56.95L18.961 52.2935C19.6007 51.676 19.9689 50.8297 19.9846 49.9407C20.0003 49.0518 19.6622 48.193 19.0448 47.5532C18.4273 46.9135 17.5809 46.5453 16.692 46.5296C15.803 46.5139 14.9442 46.852 14.3045 47.4695V47.369Z" fill="#808080"/>
</svg>
